<svg xmlns="http://www.w3.org/2000/svg" viewBox="0 0 48 48">
  <defs>
    <linearGradient id="g" x1="4" y1="2" x2="44" y2="46" gradientUnits="userSpaceOnUse">
      <stop offset="0" stop-color="#f59e0b"/>
      <stop offset="1" stop-color="#b45309"/>
    </linearGradient>
  </defs>
  <rect width="48" height="48" rx="13" fill="url(#g)"/>
  <g fill="none" stroke="#fffbeb" stroke-width="2.6" stroke-linecap="round" stroke-linejoin="round" opacity=".92">
    <path d="M8 16v-4a4 4 0 0 1 4-4h4"/>
    <path d="M8 32v4a4 4 0 0 0 4 4h4"/>
    <path d="M40 32v4a4 4 0 0 1-4 4h-4"/>
  </g>
  <g transform="translate(24 28) scale(1.1) translate(-24 -28)">
    <g fill="#fffbeb">
      <path d="M18.4 25l1.9-4.5q.5-1.1 1.7-1.1h4q1.2 0 1.7 1.1l1.9 4.5z"/>
      <rect x="15" y="24.4" width="18" height="7.6" rx="2.8"/>
      <rect x="13.4" y="24" width="2.8" height="1.9" rx=".95"/>
      <rect x="31.8" y="24" width="2.8" height="1.9" rx=".95"/>
      <rect x="16.4" y="30" width="4" height="4.6" rx="1.4"/>
      <rect x="27.6" y="30" width="4" height="4.6" rx="1.4"/>
    </g>
    <path fill="url(#g)" d="M20.5 24.4l1.2-3q.3-.7 1-.7h2.6q.7 0 1 .7l1.2 3z"/>
    <rect fill="url(#g)" x="21.6" y="27.5" width="4.8" height="2.2" rx=".7"/>
    <circle cx="18.6" cy="27.9" r="1.45" fill="#fef3c7"/>
    <circle cx="29.4" cy="27.9" r="1.45" fill="#fef3c7"/>
  </g>
  <path fill="#1c1917" d="M32 5.5h6a4 4 0 0 1 4 4v3a4 4 0 0 1-4 4h-4.4l-3.4 2.9.5-3.1A4 4 0 0 1 28 12.5v-3a4 4 0 0 1 4-4z"/>
  <g fill="#fcd34d">
    <circle cx="31.9" cy="11" r="1.1"/>
    <circle cx="35" cy="11" r="1.1"/>
    <circle cx="38.1" cy="11" r="1.1"/>
  </g>
</svg>
